<svg width="24" height="18" viewBox="0 0 24 18" fill="none" xmlns="http://www.w3.org/2000/svg">
<path d="M21.89 0.600098H2.10878C1.78408 0.600098 1.48009 0.673458 1.20508 0.794375L11.9525 10.671L14.3614 8.54358C14.3614 8.54358 14.3616 8.54336 14.3616 8.54327C14.3617 8.54319 14.3618 8.5431 14.3618 8.5431L22.794 0.794547C22.519 0.673544 22.2148 0.600098 21.89 0.600098Z" fill="#363636"/>
<path d="M23.7886 1.7085L15.8535 9.00031L23.7884 16.2922C23.9199 16.0395 23.9998 15.7602 23.9998 15.4618V2.53868C23.9998 2.24045 23.9201 1.96114 23.7886 1.7085Z" fill="#363636"/>
<path d="M0.211406 1.70801C0.0798281 1.96074 0 2.24009 0 2.53849V15.4616C0 15.7598 0.0797343 16.0392 0.211219 16.2918L8.14635 9.00003L0.211406 1.70801Z" fill="#363636"/>
<path d="M14.8592 9.91366L12.45 12.0414C12.3127 12.1676 12.1328 12.2307 11.9529 12.2307C11.773 12.2307 11.5931 12.1676 11.4558 12.0414L9.14035 9.91357L1.20508 17.2054C1.48014 17.3264 1.78431 17.3999 2.10911 17.3999H21.8903C22.215 17.3999 22.519 17.3265 22.794 17.2056L14.8592 9.91366Z" fill="#363636"/>
</svg>
