<svg width="56" height="56" viewBox="0 0 56 56" fill="none" xmlns="http://www.w3.org/2000/svg">
<path d="M0 26.24C0 16.6746 0 11.8919 1.97909 8.29194C3.44179 5.63131 5.63131 3.44179 8.29194 1.97909C11.8919 0 16.6746 0 26.24 0H29.76C39.3254 0 44.1081 0 47.7081 1.97909C50.3687 3.44179 52.5582 5.63131 54.0209 8.29194C56 11.8919 56 16.6746 56 26.24V29.76C56 39.3254 56 44.1081 54.0209 47.7081C52.5582 50.3687 50.3687 52.5582 47.7081 54.0209C44.1081 56 39.3254 56 29.76 56H26.24C16.6746 56 11.8919 56 8.29194 54.0209C5.63131 52.5582 3.44179 50.3687 1.97909 47.7081C0 44.1081 0 39.3254 0 29.76V26.24Z" fill="white"/>
<path d="M43.0018 42.125H30.7759V12.9375C30.7759 12.4197 30.3568 12 29.8402 12H27.9689C27.4521 12 27.0332 12.4197 27.0332 12.9375V42.125H24.6414C24.9635 41.5713 25.1618 40.9362 25.1618 40.2502C25.1618 38.4438 23.8763 36.8928 22.1053 36.5632L21.474 36.4452L21.356 35.8124C21.0271 34.0382 19.4167 32.7502 17.6141 32.7502C15.55 32.7502 13.8714 34.4318 13.8714 36.5202V36.988L13.4976 37.269C12.5602 37.9758 12 39.09 12 40.2502C12 40.9682 12.2127 41.6333 12.5634 42.2041C12.2325 42.3484 12 42.6775 12 43.0625C12 43.5808 12.4184 44 12.9357 44H43.0018C43.5191 44 43.9375 43.5808 43.9375 43.0625C43.9375 42.5444 43.5191 42.125 43.0018 42.125V42.125Z" fill="#09C2FC"/>
<path d="M13.4072 22.8537C13.5811 23.1149 13.8735 23.272 14.187 23.272H25.187V17.636H14.187C13.8738 17.636 13.5811 17.793 13.4072 18.0543L12.1575 19.933C11.9475 20.2485 11.9475 20.6595 12.1575 20.975L13.4072 22.8537Z" fill="#09C2FC"/>
<path d="M42.5928 12.4183C42.4192 12.157 42.1262 12 41.813 12H32.5146C32.6199 12.2953 32.6875 12.6084 32.6875 12.9393V17.636H41.813C42.1262 17.636 42.4189 17.479 42.5928 17.2177L43.8425 15.339C44.0525 15.0235 44.0525 14.6123 43.8425 14.297L42.5928 12.4183Z" fill="#09C2FC"/>
<path d="M42.5928 23.6903C42.4192 23.4288 42.1262 23.272 41.813 23.272H32.6875V28.908H41.813C42.1262 28.908 42.4189 28.751 42.5928 28.4895L43.8425 26.6111C44.0525 26.2955 44.0525 25.8843 43.8425 25.5688L42.5928 23.6903Z" fill="#09C2FC"/>
</svg>
