<svg width="56" height="56" viewBox="0 0 56 56" fill="none" xmlns="http://www.w3.org/2000/svg">
<path d="M0 26.24C0 16.6746 0 11.8919 1.97909 8.29194C3.44179 5.63131 5.63131 3.44179 8.29194 1.97909C11.8919 0 16.6746 0 26.24 0H29.76C39.3254 0 44.1081 0 47.7081 1.97909C50.3687 3.44179 52.5582 5.63131 54.0209 8.29194C56 11.8919 56 16.6746 56 26.24V29.76C56 39.3254 56 44.1081 54.0209 47.7081C52.5582 50.3687 50.3687 52.5582 47.7081 54.0209C44.1081 56 39.3254 56 29.76 56H26.24C16.6746 56 11.8919 56 8.29194 54.0209C5.63131 52.5582 3.44179 50.3687 1.97909 47.7081C0 44.1081 0 39.3254 0 29.76V26.24Z" fill="#ED1C24"/>
<path d="M36.5273 44H37.5993C40.2458 44 42.3993 41.897 42.3993 39.3125V16.6875C42.3993 14.103 40.2458 12 37.5993 12H36.5273C37.7773 13.1924 38.5593 14.8506 38.5593 16.6875V39.3125C38.5593 41.1494 37.7773 42.8076 36.5273 44Z" fill="white"/>
<path d="M19.457 24.25H21.3215C21.4045 22.8594 21.671 21.522 22.1163 20.4104C20.731 21.2444 19.739 22.6245 19.457 24.25Z" fill="white"/>
<path d="M25.12 19.5625C24.507 19.5625 23.439 21.3271 23.2412 24.25H26.9987C26.801 21.3271 25.733 19.5625 25.12 19.5625Z" fill="white"/>
<path d="M25.12 30.8125C25.733 30.8125 26.801 29.0479 26.9987 26.125H23.2412C23.439 29.0479 24.507 30.8125 25.12 30.8125Z" fill="white"/>
<path d="M28.123 20.4104C28.5683 21.522 28.8348 22.8594 28.9178 24.25H30.7823C30.5003 22.6245 29.5083 21.2444 28.123 20.4104Z" fill="white"/>
<path d="M28.123 29.9646C29.5085 29.1306 30.5005 27.7505 30.7823 26.125H28.9178C28.8348 27.5156 28.5683 28.853 28.123 29.9646Z" fill="white"/>
<path d="M31.8396 12H18.3996C15.7531 12 13.5996 14.103 13.5996 16.6875V39.3125C13.5996 41.897 15.7531 44 18.3996 44H31.8396C34.4861 44 36.6396 41.897 36.6396 39.3125V16.6875C36.6396 14.103 34.4861 12 31.8396 12ZM27.9996 40.25H22.2396C21.7091 40.25 21.2796 39.8306 21.2796 39.3125C21.2796 38.7944 21.7091 38.375 22.2396 38.375H27.9996C28.5301 38.375 28.9596 38.7944 28.9596 39.3125C28.9596 39.8306 28.5301 40.25 27.9996 40.25ZM29.9196 36.5H20.3196C19.7891 36.5 19.3596 36.0806 19.3596 35.5625C19.3596 35.0444 19.7891 34.625 20.3196 34.625H29.9196C30.4501 34.625 30.8796 35.0444 30.8796 35.5625C30.8796 36.0806 30.4501 36.5 29.9196 36.5ZM25.1196 32.6875C20.8849 32.6875 17.4396 29.323 17.4396 25.1875C17.4396 21.052 20.8849 17.6875 25.1196 17.6875C29.3544 17.6875 32.7996 21.052 32.7996 25.1875C32.7996 29.323 29.3544 32.6875 25.1196 32.6875Z" fill="white"/>
<path d="M19.457 26.125C19.739 27.7505 20.731 29.1306 22.1163 29.9646C21.671 28.853 21.4045 27.5156 21.3215 26.125H19.457Z" fill="white"/>
</svg>
