<svg width="56" height="56" viewBox="0 0 56 56" fill="none" xmlns="http://www.w3.org/2000/svg">
<path d="M0 26.24C0 16.6746 0 11.8919 1.97909 8.29194C3.44179 5.63131 5.63131 3.44179 8.29194 1.97909C11.8919 0 16.6746 0 26.24 0H29.76C39.3254 0 44.1081 0 47.7081 1.97909C50.3687 3.44179 52.5582 5.63131 54.0209 8.29194C56 11.8919 56 16.6746 56 26.24V29.76C56 39.3254 56 44.1081 54.0209 47.7081C52.5582 50.3687 50.3687 52.5582 47.7081 54.0209C44.1081 56 39.3254 56 29.76 56H26.24C16.6746 56 11.8919 56 8.29194 54.0209C5.63131 52.5582 3.44179 50.3687 1.97909 47.7081C0 44.1081 0 39.3254 0 29.76V26.24Z" fill="white"/>
<path d="M27.9994 17.625C27.4034 17.625 26.3651 19.3896 26.1729 22.3125H29.826C29.6337 19.3896 28.5954 17.625 27.9994 17.625Z" fill="#096AFC"/>
<path d="M27.9994 28.875C28.5954 28.875 29.6337 27.1104 29.826 24.1875H26.1729C26.3651 27.1104 27.4034 28.875 27.9994 28.875Z" fill="#096AFC"/>
<path d="M33.5053 22.3124C33.2311 20.687 32.2667 19.3068 30.9199 18.4728C31.3528 19.5844 31.6119 20.9218 31.6926 22.3124H33.5053Z" fill="#096AFC"/>
<path d="M25.0795 18.4728C23.7328 19.3068 22.7681 20.687 22.4941 22.3124H24.3068C24.3875 20.9218 24.6466 19.5844 25.0795 18.4728Z" fill="#096AFC"/>
<path d="M25.0795 28.0271C24.6466 26.9155 24.3875 25.5781 24.3068 24.1875H22.4941C22.7683 25.813 23.7328 27.1931 25.0795 28.0271Z" fill="#096AFC"/>
<path d="M16.7998 23.25C16.7998 25.4565 17.4361 27.5942 18.6244 29.406L27.205 43.5532C27.3744 43.8306 27.6753 44 27.9998 44C28.3243 44 28.6252 43.8306 28.7946 43.5532L37.3596 29.4307C38.5635 27.5942 39.1998 25.4565 39.1998 23.25C39.1998 17.0464 34.1758 12 27.9998 12C21.8238 12 16.7998 17.0464 16.7998 23.25ZM27.9998 15.75C32.1169 15.75 35.4665 19.1145 35.4665 23.25C35.4665 27.3855 32.1169 30.75 27.9998 30.75C23.8827 30.75 20.5331 27.3855 20.5331 23.25C20.5331 19.1145 23.8827 15.75 27.9998 15.75Z" fill="#096AFC"/>
<path d="M33.5053 24.1875H31.6926C31.6119 25.5781 31.3528 26.9155 30.9199 28.0271C32.2667 27.1931 33.2311 25.813 33.5053 24.1875V24.1875Z" fill="#096AFC"/>
</svg>
