<svg width="48" height="48" viewBox="0 0 48 48" fill="none" xmlns="http://www.w3.org/2000/svg">
<path d="M48 21.5424C48 26.4697 43.0345 28.1121 43.0345 28.1121C39.7241 42.8939 24 32.2182 24 32.2182C24 32.2182 8.27586 42.8939 4.96552 28.1121C4.96552 28.1121 0 26.4697 0 21.5424C0 16.6151 3.31034 14.9727 3.31034 14.9727C3.31034 14.9727 1.65517 5.11813 11.5862 5.93934C11.8521 5.87878 15.0734 -2.44935 24 2.65449C32.9266 -2.44935 36.1479 5.87878 36.4138 5.93934C46.3448 5.11813 44.6897 14.9727 44.6897 14.9727C44.6897 14.9727 48 16.6151 48 21.5424Z" fill="#F4AE40"/>
<path d="M19.8625 47.0001C19.8625 47.0001 21.5176 37.1455 21.5176 33.8607C21.5176 30.5758 14.0694 30.5758 9.93144 27.291C7.19006 25.1147 6.62109 24.0061 6.62109 24.0061L9.10385 21.5425L12.4142 24.8273L13.2418 20.7213L16.5521 21.5425C16.5521 21.5425 14.897 25.6485 16.5521 26.4697C18.2073 27.291 22.3452 28.1122 22.3452 28.1122C22.3452 28.1122 22.3452 20.7213 19.8625 19.0788C17.3797 17.4364 14.897 18.2576 13.2418 11.6879L16.5521 10.8667C16.5521 10.8667 16.5521 14.1516 20.6901 15.794C24.828 17.4364 25.6556 22.3637 25.6556 22.3637C25.6556 22.3637 29.7935 19.0788 28.1383 16.6152C26.4832 14.1516 25.6556 13.3303 25.6556 13.3303L28.1383 11.6879L31.4487 14.9728C31.4487 14.9728 33.9314 11.6879 38.0694 12.5091L38.897 14.9728C38.897 14.9728 34.759 14.9728 30.6211 21.5425C26.2349 28.5064 26.4832 28.9334 26.4832 28.9334C27.5309 28.8754 28.544 28.5402 29.4171 27.9625C30.2903 27.3849 30.9917 26.5859 31.4487 25.6485C33.1039 22.3637 36.4142 21.5425 36.4142 21.5425L37.2418 24.0061L34.759 26.4697L38.897 28.1122L37.2418 30.5758L33.9314 29.7546C30.4599 31.1176 26.4832 32.2182 26.4832 35.5031C26.4832 38.7879 28.1383 47.0001 28.1383 47.0001H19.8625Z" fill="#AB6647"/>
<path d="M0.828125 36.3242C0.828125 36.3242 5.79364 35.503 5.79364 41.2515C5.79364 41.2515 0.828125 42.8939 0.828125 36.3242Z" fill="#E07E30"/>
<path d="M16.5515 39.609C16.5515 39.609 11.5859 38.7878 11.5859 45.3575C11.5859 45.3575 17.379 45.3575 16.5515 39.609Z" fill="#F4AE40"/>
<path d="M47.1725 36.3242C47.1725 36.3242 42.207 35.503 42.207 41.2515C42.207 41.2515 47.1725 42.8939 47.1725 36.3242Z" fill="#F4AE40"/>
<path d="M31.4481 39.609C31.4481 39.609 36.4136 38.7878 36.4136 45.3575C36.4136 45.3575 30.6205 45.3575 31.4481 39.609Z" fill="#E07E30"/>
</svg>
