<svg width="56" height="56" viewBox="0 0 56 56" fill="none" xmlns="http://www.w3.org/2000/svg">
<path d="M0 26.24C0 16.6746 0 11.8919 1.97909 8.29194C3.44179 5.63131 5.63131 3.44179 8.29194 1.97909C11.8919 0 16.6746 0 26.24 0H29.76C39.3254 0 44.1081 0 47.7081 1.97909C50.3687 3.44179 52.5582 5.63131 54.0209 8.29194C56 11.8919 56 16.6746 56 26.24V29.76C56 39.3254 56 44.1081 54.0209 47.7081C52.5582 50.3687 50.3687 52.5582 47.7081 54.0209C44.1081 56 39.3254 56 29.76 56H26.24C16.6746 56 11.8919 56 8.29194 54.0209C5.63131 52.5582 3.44179 50.3687 1.97909 47.7081C0 44.1081 0 39.3254 0 29.76V26.24Z" fill="white"/>
<path d="M44 28.2614C44 35.5905 38.5793 41.6805 31.5263 42.7543C31.5858 42.429 31.6025 42.0922 31.5624 41.7509C31.5624 41.7509 31.5203 41.3917 31.4651 40.9216C33.9693 40.4962 36.2301 39.3503 38.022 37.7024C37.9145 37.6131 37.8073 37.4974 37.7017 37.3438C37.2258 36.6513 37.8481 35.9641 37.8481 35.3585C37.8481 34.7645 36.6472 34.8133 36.6032 34.4199C36.4515 33.0574 37.4417 33.0388 37.9696 32.5124C38.4975 31.9859 37.4478 30.789 36.7698 30.8663C36.0872 30.939 34.1657 30.5519 34.3413 29.0858C34.5552 27.3003 32.0602 27.4578 31.7029 26.6244C31.1821 25.4096 32.0479 23.9195 33.1772 23.581C34.7768 23.1015 36.3526 21.8001 36.2295 20.3514C36.09 18.7107 35.3454 17.231 34.1188 16.352C32.8425 15.8363 31.4662 15.5175 30.0263 15.437C28.7413 15.4877 27.6114 15.7725 27.663 16.3593C27.7894 17.7971 31.8893 18.1705 31.2013 19.5146C30.8426 20.2153 28.1506 21.2042 28.6534 22.247C28.9804 22.9251 29.7851 22.3439 29.4847 23.6458C29.3465 24.2449 28.8198 25.3704 28.0098 25.443C27.1815 25.5202 26.4918 23.3319 24.2372 23.2601C23.1714 23.2261 21.6699 24.9185 22.9448 26.1192C23.7169 26.8463 25.1657 25.2453 25.5934 26.4959C25.8947 27.3772 25.5528 29.2286 26.9592 30.0023C27.4718 30.2843 28.2578 30.5302 29.0351 30.9241C27.8814 31.1591 26.4637 31.5975 24.7897 32.2405L23.3793 31.8694C23.9698 31.3793 24.9291 31.0342 24.6877 29.9632C24.3332 28.3896 21.5935 28.9831 19.7047 27.0995C19.1252 26.5217 17.8893 24.6032 17.8944 22.2982C16.9529 24.0816 16.417 26.1099 16.417 28.2615C16.417 28.9238 16.4677 29.5745 16.5651 30.2101C16.5429 30.2098 16.5209 30.2059 16.4988 30.2059C15.9039 30.2059 15.3206 30.3305 14.7799 30.5662C14.6605 29.815 14.5968 29.0457 14.5968 28.2615C14.5968 20.1773 21.1919 13.6 29.2983 13.6C37.4048 13.5999 44 20.1772 44 28.2614ZM32.972 32.5348L29.3814 34.1807L29.4371 33.4005L31.7631 32.3533C31.4314 32.3296 31.0876 32.3206 30.7444 32.3206C29.4592 32.3206 27.2879 32.9694 24.8863 33.9201L17.184 31.894C16.4642 31.7046 15.6979 31.8212 15.0674 32.2162L14.6887 32.4535C14.319 32.6851 14.3151 33.2212 14.6814 33.4582L19.3114 36.4538C18.2053 37.0179 17.156 37.5908 16.2309 38.138L13.8551 36.8836C13.467 36.6787 13.0082 36.6544 12.6006 36.8172L12.3757 36.9071C12.0403 37.041 11.8998 37.4387 12.0771 37.7527L13.3859 40.0716L13.3865 40.0714C12.8927 40.4951 12.6112 40.8465 12.6112 41.0896C12.6112 41.8173 13.5092 41.9992 14.3008 41.9992C15.7125 41.9992 34.3565 37.7421 34.3565 33.8853C34.3564 33.1215 33.8326 32.7395 32.972 32.5348ZM25.1112 40.0649L29.2138 38.6236C29.3945 38.5601 29.5876 38.6803 29.6099 38.8701L29.9696 41.937C30.0594 42.7033 29.6461 43.4408 28.9445 43.7661L28.5597 43.9444C28.3194 44.0558 28.0344 43.9961 27.8592 43.7978L24.9861 40.5429C24.8463 40.3844 24.9114 40.1351 25.1112 40.0649Z" fill="#FC7E09"/>
</svg>
