<svg width="48" height="48" viewBox="0 0 48 48" fill="none" xmlns="http://www.w3.org/2000/svg">
<g clip-path="url(#clip0_3871_12999)">
<path d="M35.2811 24.0002L40.8567 18.4246C40.8696 18.4118 41.5911 17.6792 41.2236 16.7921C40.9732 16.1876 40.3715 16.0492 40.0069 16.0228H39.7107H39.7105L31.9769 16.0227C31.9769 15.1134 31.9768 9.15533 31.9768 8.25111C31.9667 7.61943 31.8685 7.03396 31.1185 6.60215C30.1914 6.06843 29.0081 7.08168 29.0081 7.08168L23.7716 12.3183L23.7372 12.2839L23.7027 12.3183L18.4662 7.08168C18.4662 7.08168 17.2829 6.06824 16.3557 6.60215C15.6058 7.03396 15.5076 7.61952 15.4975 8.25111V8.6983C15.4975 8.70055 15.4975 8.7027 15.4975 8.70495C15.4975 8.70514 15.4975 8.70514 15.4975 8.70524L15.4973 16.0227L7.76359 16.0228H7.7635H7.46734C7.10284 16.0493 6.50106 16.1877 6.25065 16.7921C5.88325 17.6792 6.60475 18.4117 6.61759 18.4246L12.193 24.0002L6.77725 29.416C6.77725 29.416 5.8915 30.3398 6.27522 31.2673C6.49187 31.9117 7.53521 32.1962 8.20965 32.1962L15.5882 32.1964V39.853C15.5882 39.853 15.5882 41.1244 16.4454 41.4527L16.4462 41.4529C17.2996 41.779 18.4174 40.785 18.4278 40.7758L23.7027 35.5009L23.7372 35.5353L23.7717 35.5009L29.0467 40.7758C29.057 40.785 30.1749 41.7791 31.0283 41.4529L31.0289 41.4527C31.8862 41.1244 31.8862 39.853 31.8862 39.853V32.1964L39.2647 32.1962C39.9381 32.1962 40.9854 31.9114 41.1992 31.2673C41.5826 30.3396 40.697 29.416 40.697 29.416L35.2811 24.0002Z" fill="#AEF0FF"/>
<path d="M23.9995 12.0903L23.9395 14.3682C31.8539 6.4208 31.1637 7.0792 31.4861 6.87089C31.3853 6.77602 31.2647 6.68592 31.1187 6.60183C30.1916 6.06811 29.0084 7.08136 29.0084 7.08136L23.9995 12.0903Z" fill="#6EDCF9"/>
<path d="M31.2342 40.7755L24.0771 33.6147V35.8062L29.0465 40.7755C29.0569 40.7846 30.1747 41.7788 31.0281 41.4525L31.0288 41.4523C31.2612 41.3633 31.4302 41.2047 31.5538 41.0212C31.3606 40.8877 31.2376 40.7785 31.2342 40.7755Z" fill="#6EDCF9"/>
<path d="M15.4971 15.1478V16.0227L17.6846 18.1962L17.6848 8.70522C17.6848 8.70513 17.6848 8.70513 17.6848 8.70494C17.6848 8.70278 17.6848 8.70053 17.6848 8.69828V8.2511C17.693 7.74241 17.7588 7.26372 18.1756 6.8711C17.7669 6.6071 16.9995 6.23126 16.3554 6.60213C15.6054 7.03394 15.5073 7.61951 15.4972 8.2511V8.69828C15.4972 8.70053 15.4972 8.70269 15.4972 8.70494C15.4972 8.70513 15.4972 8.70513 15.4972 8.70522L15.4971 15.1478Z" fill="#6EDCF9"/>
<path d="M10.0489 32.1705C9.45053 32.0972 8.65384 31.8356 8.46278 31.2671C8.07915 30.3394 8.96481 29.4157 8.96481 29.4157L14.3806 24L8.80515 18.4243C8.79231 18.4116 8.07081 17.6789 8.43821 16.7919C8.65928 16.2582 9.1539 16.088 9.51774 16.0372V16.0225H7.76359H7.7635H7.46734C7.10284 16.049 6.50106 16.1874 6.25065 16.7918C5.88325 17.6788 6.60475 18.4114 6.61759 18.4242L12.193 23.9999L6.77725 29.4157C6.77725 29.4157 5.8915 30.3395 6.27522 31.267C6.49187 31.9114 7.53522 32.1959 8.20965 32.1959H10.049L10.0489 32.1705Z" fill="#6EDCF9"/>
<path d="M17.7754 39.853V29.9155L15.5879 32.1963C15.5879 33.1397 15.5879 37.7417 15.5879 39.8529C15.5879 40.4478 15.8878 41.2988 16.4458 41.4527C17.0193 41.6719 17.7118 41.2951 18.1078 41.0213C17.7758 40.528 17.7754 39.853 17.7754 39.853Z" fill="#6EDCF9"/>
<path d="M29.9126 23.7576L32.8949 20.7752C33.2803 20.3919 33.3269 19.4905 32.2819 19.4905H28.1452L28.1451 15.5763C28.1451 15.5762 28.1451 15.5762 28.1451 15.5761C28.1451 15.575 28.1451 15.5738 28.1451 15.5726V15.3333C28.1397 14.9954 28.0872 14.6823 27.6861 14.4512C27.1903 14.1658 26.5573 14.7077 26.5573 14.7077L23.7562 17.5089L23.7378 17.4905L23.7194 17.5089L20.9184 14.7078C20.9184 14.7078 20.2855 14.1659 19.7896 14.4513C19.2952 14.7359 19.3306 15.1439 19.3306 15.5763L19.3305 19.4905C18.843 19.4905 15.5869 19.4905 15.1937 19.4905C14.1812 19.4905 14.1725 20.3693 14.5807 20.7752L17.563 23.7576L14.6662 26.6545C14.4331 26.8976 14.2621 27.2938 14.3981 27.6461C14.6043 28.1417 15.4325 28.1417 15.4325 28.1417L19.3792 28.1418V32.2374C19.3792 32.2374 19.3792 32.9173 19.8377 33.093L19.8381 33.0931C20.2946 33.2676 20.8925 32.7359 20.8981 32.731L23.7196 29.9095L23.738 29.9278L23.7564 29.9095L26.578 32.731C26.5835 32.7359 27.1814 33.2676 27.638 33.0931L27.6384 33.093C28.0969 32.9174 28.0969 32.2374 28.0969 32.2374V28.1418L32.0438 28.1417C32.0438 28.1417 32.8719 28.1417 33.0781 27.6461L33.0785 27.6448C33.2836 27.1486 32.8099 26.6545 32.8099 26.6545L29.9126 23.7576Z" fill="#10639B"/>
<path d="M24.0003 17.2651L23.9727 19.159L28.1248 15.0682C28.0182 14.4154 27.2914 14.0793 26.5575 14.7078L24.0003 17.2651Z" fill="#065784"/>
<path d="M21.2788 15.0683L20.9184 14.708C20.9184 14.708 20.2855 14.166 19.7896 14.4515C19.2959 14.7357 19.3306 15.1433 19.3306 15.5728C19.3306 15.5735 19.3306 15.5726 19.3306 15.5766L19.3304 19.4906L21.258 21.3527C21.2582 16.9362 21.2391 15.3121 21.2788 15.0683Z" fill="#065784"/>
<path d="M23.6836 27.896V29.8531L26.578 32.7308C26.5835 32.7357 27.1814 33.2674 27.638 33.0929L27.6384 33.0928C28.0006 32.9542 28.0764 32.5019 28.0924 32.3174L23.6836 27.896Z" fill="#065784"/>
<path d="M17.2378 28.1346C16.0483 28.0275 16.1197 27.1488 16.5939 26.6543L19.4908 23.7574L16.5085 20.7751C16.5017 20.7682 16.1157 20.3764 16.3122 19.9018C16.4462 19.5785 16.768 19.5045 16.9629 19.4902C16.7417 19.4902 15.4153 19.4902 15.1937 19.4902C14.1812 19.4902 14.1725 20.369 14.5807 20.775L17.563 23.7574L14.6662 26.6542C14.4331 26.8973 14.2621 27.2936 14.3981 27.6458C14.6043 28.1415 15.4324 28.1415 15.4324 28.1415H17.2378V28.1346Z" fill="#065784"/>
<path d="M21.3066 26.134L19.3789 28.1416C19.3789 30.2456 19.3789 30.1274 19.3789 32.2372C19.3789 32.2372 19.3789 32.9171 19.8373 33.0928L19.8378 33.0929C20.2943 33.2674 20.8922 32.7357 20.8977 32.7307L21.3111 32.3174C21.3041 32.2361 21.3066 32.6542 21.3066 26.134Z" fill="#065784"/>
<path d="M47.2968 23.0459H42.7256L44.9973 20.7742C45.2719 20.4997 45.2719 20.0544 44.9973 19.7798C44.7227 19.5052 44.2775 19.5052 44.0029 19.7798L40.7367 23.0459H25.6974L36.5266 12.2164C36.6454 12.2164 40.8879 12.2166 40.8701 12.2166C41.2585 12.2166 41.5733 11.9018 41.5733 11.5135C41.5733 11.1251 41.2585 10.8103 40.8701 10.8103L37.9329 10.8102L40.9702 7.77293C41.2448 7.49834 41.2448 7.05312 40.9702 6.77852C40.6956 6.50393 40.2504 6.50393 39.9757 6.77852L36.6707 10.0835V6.61099C36.6707 6.22268 36.3559 5.90787 35.9676 5.90787C35.5793 5.90787 35.2645 6.22268 35.2645 6.61099V11.4896L24.441 22.3135V6.73887L27.7016 3.47834C27.9762 3.20375 27.9762 2.75853 27.7016 2.48394C27.4271 2.20925 26.9819 2.20935 26.7071 2.48394L24.441 4.75006V0.7041C24.441 0.315788 24.1261 0.000976562 23.7378 0.000976562C23.3495 0.000976562 23.0347 0.315788 23.0347 0.7041V4.75006L20.7684 2.48394C20.4938 2.20925 20.0486 2.20935 19.7739 2.48394C19.4992 2.75853 19.4993 3.20375 19.7739 3.47834L23.0345 6.73887V22.1455L12.211 11.3221V6.61099C12.211 6.22268 11.8962 5.90787 11.5079 5.90787C11.1196 5.90787 10.8048 6.22268 10.8048 6.61099V9.91558L7.91942 7.03043C7.64483 6.75584 7.19961 6.75584 6.92502 7.03043C6.65042 7.30502 6.65042 7.75024 6.92502 8.02483L9.71051 10.8103L6.60542 10.8104C6.21702 10.8104 5.9023 11.1252 5.9023 11.5135C5.9023 11.902 6.21711 12.2167 6.60542 12.2167L11.1169 12.2166L21.9463 23.046H6.73911L3.47277 19.7797C3.19818 19.5051 2.75296 19.5051 2.47828 19.7797C2.20368 20.0542 2.20368 20.4995 2.47828 20.7741L4.75012 23.0458H0.703124C0.314812 23.0458 0 23.3606 0 23.7489C0 24.1372 0.314812 24.452 0.703124 24.452H4.73868L2.47818 26.7125C2.03381 27.1568 2.35453 27.9129 2.97534 27.9129C3.15524 27.9129 3.33524 27.8443 3.47249 27.707L6.72749 24.452H22.3022L11.4844 35.27H6.60542C6.21711 35.27 5.9023 35.5848 5.9023 35.9732C5.9023 36.3615 6.21711 36.6763 6.60542 36.6763H10.0781L7.02955 39.7249C6.75496 39.9995 6.75496 40.4447 7.02955 40.7194C7.1668 40.8567 7.3468 40.9254 7.5267 40.9254C7.70661 40.9254 7.88661 40.8568 8.02386 40.7194L10.8045 37.9388V40.8758C10.8045 41.2641 11.1193 41.5789 11.5076 41.5789C11.8959 41.5789 12.2107 41.2641 12.2107 40.8758V36.5325L23.0344 25.7086V40.748L19.7738 44.0084C19.4992 44.283 19.4992 44.7282 19.7738 45.0029C19.9111 45.1402 20.0911 45.2088 20.271 45.2088C20.4509 45.2088 20.6309 45.1402 20.7681 45.0029L23.0342 42.7368V47.2977C23.0342 47.686 23.3491 48.0008 23.7374 48.0008C24.1257 48.0008 24.4405 47.686 24.4405 47.2977V42.7368L26.7066 45.0029C26.9812 45.2775 27.4264 45.2774 27.7011 45.0029C27.9757 44.7283 27.9757 44.283 27.7011 44.0084L24.4405 40.7479V25.5406L35.2644 36.3645L35.2646 40.8758C35.2646 41.2641 35.5794 41.5789 35.9677 41.5789C36.3558 41.5789 36.6708 41.2643 36.6708 40.8758L36.6709 37.7706L39.8715 40.9712C40.0088 41.1085 40.1888 41.1772 40.3687 41.1772C40.5486 41.1772 40.7286 41.1086 40.8658 40.9712C41.1404 40.6966 41.1404 40.2514 40.8658 39.9768L37.5656 36.6766H40.87C41.2583 36.6766 41.5731 36.3617 41.5731 35.9734C41.5731 35.5851 41.2583 35.2703 40.87 35.2703H36.1593L25.3413 24.4522H40.7481C44.3046 28.0089 44.1116 27.9131 44.5 27.9131C45.1209 27.9131 45.4416 27.1571 44.9973 26.7127L42.737 24.4522H47.2968C47.6851 24.4522 47.9999 24.1374 47.9999 23.7491C47.9999 23.3607 47.6851 23.0459 47.2968 23.0459Z" fill="#4BCAE8"/>
</g>
<defs>
<clipPath id="clip0_3871_12999">
<rect width="48" height="48" fill="white"/>
</clipPath>
</defs>
</svg>
