<svg width="48" height="48" viewBox="0 0 48 48" fill="none" xmlns="http://www.w3.org/2000/svg">
<path d="M12.902 43.7035C16.3974 47.1376 24.8568 47.158 24.8568 47.158C24.8568 47.158 24.8361 38.847 21.3407 35.4129C17.8452 31.9788 12.1987 34.722 12.1987 34.722C12.1987 34.722 9.40659 40.2696 12.902 43.7035Z" fill="#BAD748"/>
<path d="M24.8567 48.0001C24.6294 48.0001 24.4114 47.9113 24.2506 47.7534C24.0899 47.5955 23.9996 47.3813 23.9996 47.1579V35.3685C23.9949 31.3498 22.3679 27.497 19.4755 24.6553C16.5831 21.8136 12.6615 20.2152 8.57101 20.2106C8.34368 20.2106 8.12566 20.1219 7.96492 19.9639C7.80417 19.806 7.71387 19.5918 7.71387 19.3685C7.71387 19.1451 7.80417 18.9309 7.96492 18.773C8.12566 18.6151 8.34368 18.5264 8.57101 18.5264C13.116 18.5314 17.4734 20.3075 20.6872 23.4649C23.901 26.6223 25.7087 30.9032 25.7139 35.3685V47.1579C25.7139 47.3813 25.6236 47.5955 25.4628 47.7534C25.3021 47.9113 25.0841 48.0001 24.8567 48.0001Z" fill="#A3C540"/>
<path d="M24.8571 47.158L18 40.4211L24.8571 47.158Z" fill="#BAD748"/>
<path d="M24.8571 48.0001C24.7445 48.0002 24.633 47.9785 24.529 47.9361C24.425 47.8938 24.3306 47.8317 24.2511 47.7533L17.3939 41.0165C17.2378 40.8577 17.1514 40.6449 17.1534 40.4241C17.1553 40.2033 17.2455 39.9921 17.4044 39.836C17.5633 39.6799 17.7783 39.5913 18.003 39.5894C18.2278 39.5875 18.4443 39.6723 18.6059 39.8257L25.4631 46.5626C25.5829 46.6804 25.6645 46.8304 25.6976 46.9937C25.7306 47.157 25.7137 47.3263 25.6488 47.4802C25.5839 47.634 25.4741 47.7655 25.3332 47.8581C25.1923 47.9506 25.0266 48 24.8571 48.0001Z" fill="#A3C540"/>
<path d="M36.8122 43.7035C33.3168 47.1376 24.8574 47.158 24.8574 47.158C24.8574 47.158 24.8782 38.847 28.3736 35.4129C31.869 31.9788 37.5155 34.722 37.5155 34.722C37.5155 34.722 40.3077 40.2696 36.8122 43.7035Z" fill="#BAD748"/>
<path d="M36.8122 43.7035C33.3168 47.1376 24.8574 47.158 24.8574 47.158C24.8574 47.158 24.8782 38.847 28.3736 35.4129C31.869 31.9788 37.5155 34.722 37.5155 34.722C37.5155 34.722 40.3077 40.2696 36.8122 43.7035Z" fill="#BAD748"/>
<path d="M14.6163 44.5455C11.1209 41.1114 13.913 35.564 13.913 35.564C13.913 35.564 17.4591 33.8515 20.6709 34.8466C17.1699 32.3075 12.1987 34.7219 12.1987 34.7219C12.1987 34.7219 9.40659 40.2693 12.902 43.7034C13.7939 44.5259 14.8426 45.167 15.9877 45.5897C15.491 45.295 15.0308 44.9446 14.6163 44.5455Z" fill="#D0E47E"/>
<path d="M30.0879 36.2549C32.4208 33.9629 35.7041 34.4233 37.6352 34.9825C37.5623 34.8159 37.5152 34.7215 37.5152 34.7215C37.5152 34.7215 31.8687 31.9783 28.3732 35.4124C24.8778 38.8465 24.8574 47.1578 24.8574 47.1578C24.8574 47.1578 25.5431 47.1559 26.6039 47.0745C26.7246 44.8153 27.3037 38.9901 30.0879 36.2549Z" fill="#D0E47E"/>
<path d="M24.8574 47.158L31.7146 40.4211L24.8574 47.158Z" fill="#BAD748"/>
<path d="M24.857 48.0001C24.6875 48 24.5218 47.9506 24.3809 47.8581C24.2399 47.7655 24.1301 47.634 24.0652 47.4802C24.0004 47.3263 23.9834 47.157 24.0165 46.9937C24.0495 46.8304 24.1311 46.6804 24.251 46.5626L31.1081 39.8257C31.2698 39.6723 31.4863 39.5875 31.711 39.5894C31.9358 39.5913 32.1507 39.6799 32.3097 39.836C32.4686 39.9921 32.5587 40.2033 32.5607 40.4241C32.5626 40.6449 32.4762 40.8577 32.3201 41.0165L25.463 47.7533C25.3835 47.8317 25.289 47.8938 25.185 47.9361C25.081 47.9785 24.9695 48.0002 24.857 48.0001Z" fill="#A3C540"/>
<path d="M14.2503 11.8743C17.0629 11.486 20.9519 14.3506 20.9519 14.3506C20.9519 14.3506 18.0173 18.1573 15.2046 18.5456C12.392 18.9339 11.0304 17.5991 10.7664 15.7569C10.5024 13.9146 11.4376 12.2627 14.2503 11.8743Z" fill="#DC303E"/>
<path d="M1.97338 23.9351C1.57806 26.6985 4.49338 30.5193 4.49338 30.5193C4.49338 30.5193 8.36809 27.6361 8.76341 24.8727C9.15872 22.1094 7.79998 20.7717 5.92489 20.5124C4.04981 20.2531 2.36861 21.1719 1.97338 23.9351Z" fill="#DC303E"/>
<path d="M24.8571 47.1579C24.6298 47.1579 24.4118 47.0691 24.2511 46.9112C24.0903 46.7533 24 46.5391 24 46.3158V25.2631C24.0056 20.3513 25.9942 15.6423 29.5293 12.1692C33.0645 8.69599 37.8576 6.74234 42.8571 6.73682C43.0845 6.73682 43.3025 6.82554 43.4632 6.98346C43.624 7.14139 43.7143 7.35558 43.7143 7.57892C43.7143 7.80226 43.624 8.01645 43.4632 8.17438C43.3025 8.3323 43.0845 8.42103 42.8571 8.42103C38.3122 8.42606 33.9548 10.2021 30.741 13.3595C27.5272 16.5169 25.7194 20.7979 25.7143 25.2631V46.3158C25.7143 46.5391 25.624 46.7533 25.4632 46.9112C25.3025 47.0691 25.0845 47.1579 24.8571 47.1579Z" fill="#A3C540"/>
<path d="M33.7505 1.76911C30.9379 1.38073 27.0488 4.24532 27.0488 4.24532C27.0488 4.24532 29.9835 8.05206 32.7961 8.44035C35.6088 8.82865 36.9709 7.49391 37.2344 5.65164C37.498 3.80936 36.5632 2.15749 33.7505 1.76911Z" fill="#DC303E"/>
<path d="M46.0258 13.8299C46.4211 16.5933 43.5058 20.4141 43.5058 20.4141C43.5058 20.4141 39.6316 17.5309 39.2358 14.7675C38.8401 12.0042 40.1992 10.6665 42.0743 10.4072C43.9494 10.1479 45.6306 11.0666 46.0258 13.8299Z" fill="#DC303E"/>
<path d="M32.6909 8.98666C30.21 11.424 30.1953 17.3227 30.1953 17.3227C30.1953 17.3227 36.1993 17.3083 38.6803 14.871C41.1612 12.4336 40.8332 10.1215 39.1794 8.49622C37.5255 6.87095 35.1717 6.54927 32.6909 8.98666Z" fill="#F03849"/>
<path d="M40.7271 0L41.2915 2.93633L44.302 3.51217L44.9391 6.52L48.0002 7.14551L44.9698 10.1228C43.9911 11.0651 42.6731 11.5894 41.3028 11.5815C39.9325 11.5737 38.6208 11.0342 37.6535 10.0807L37.6751 10.1019C37.1991 9.6334 36.822 9.07717 36.5654 8.46513C36.3088 7.8531 36.1777 7.1973 36.1797 6.53538C36.1817 5.87345 36.3168 5.21844 36.5771 4.60791C36.8374 3.99739 37.2179 3.44338 37.6967 2.97768L40.7271 0Z" fill="#FF6270"/>
<path d="M12.4805 16.599C12.217 14.7568 13.1517 13.1049 15.9645 12.7165C17.1367 12.6352 18.3104 12.8538 19.371 13.351C17.9812 12.5664 15.9271 11.6428 14.2502 11.8744C11.4375 12.2628 10.5027 13.9147 10.7662 15.7569C10.8222 16.4474 11.1153 17.0986 11.5974 17.604C12.0796 18.1093 12.7222 18.4388 13.4199 18.5383C12.8974 18.0115 12.5671 17.3296 12.4805 16.599Z" fill="#F03849"/>
<path d="M3.68812 24.7775C4.08335 22.0142 5.7649 21.0958 7.63998 21.3546C7.72021 21.3658 7.79324 21.3904 7.87141 21.4052C7.33773 20.9094 6.65525 20.5963 5.9257 20.5125C4.05061 20.2537 2.36907 21.1721 1.97427 23.9354C1.57947 26.6986 4.49427 30.5195 4.49427 30.5195C4.49427 30.5195 4.80215 30.2885 5.24667 29.9038C4.43701 28.5384 3.44692 26.4632 3.68812 24.7775Z" fill="#F03849"/>
<path d="M28.7631 5.0875C28.7631 5.0875 32.6521 2.22291 35.4648 2.61171C35.7308 2.65085 35.9942 2.706 36.2533 2.77684C35.538 2.20665 34.6674 1.8563 33.7505 1.7696C30.9379 1.38122 27.0488 4.24581 27.0488 4.24581C27.0488 4.24581 29.5665 7.50653 32.1728 8.2971C30.8869 7.3917 29.7388 6.31098 28.7631 5.0875Z" fill="#F03849"/>
<path d="M43.0052 3.77852L44.4152 4.04799L44.3012 3.51242L42.9023 3.24463L43.0052 3.77852Z" fill="#FF6270"/>
<path d="M37.6533 10.0801L37.6749 10.1018L37.6651 10.0898L37.6533 10.0801Z" fill="#FF6270"/>
<path d="M46.6538 7.36158L47.5863 7.55274L48.0004 7.14516L46.5449 6.8479L46.6538 7.36158Z" fill="#FF6270"/>
<path d="M39.3789 10.9319L39.3888 10.9437L39.3672 10.9224L39.3789 10.9319C38.9053 10.463 38.5303 9.90706 38.2755 9.29575C38.0207 8.68444 37.8911 8.02979 37.894 7.36922C37.8969 6.70864 38.0324 6.05512 38.2926 5.44601C38.5528 4.83689 38.9326 4.28415 39.4104 3.81937L41.1351 2.12497L40.7265 0L37.6961 2.97726C37.2183 3.44204 36.8385 3.99479 36.5783 4.6039C36.3181 5.21301 36.1827 5.86654 36.1797 6.52711C36.1768 7.18768 36.3065 7.84234 36.5613 8.45365C36.816 9.06496 37.191 9.62093 37.6647 10.0898C38.2919 10.6938 39.0655 11.131 39.9123 11.36C39.725 11.2292 39.5468 11.0861 39.3789 10.9319Z" fill="#FF848E"/>
<path d="M15.3097 19.0919C17.7906 21.5292 17.8052 27.428 17.8052 27.428C17.8052 27.428 11.8012 27.4135 9.3203 24.9762C6.83938 22.5389 7.16732 20.2267 8.82118 18.6014C10.475 16.9762 12.8288 16.6545 15.3097 19.0919Z" fill="#F03849"/>
<path d="M7.27311 10.1052L6.70869 13.0416L3.69823 13.6174L3.06111 16.6252L0 17.2507L3.03043 20.228C4.0091 21.1703 5.3271 21.6947 6.69741 21.6868C8.06772 21.6789 9.37937 21.1394 10.3467 20.1859L10.3251 20.2071C10.8011 19.7386 11.1782 19.1824 11.4348 18.5704C11.6914 17.9583 11.8225 17.3025 11.8205 16.6406C11.8185 15.9787 11.6834 15.3237 11.4231 14.7131C11.1628 14.1026 10.7823 13.5486 10.3035 13.0829L7.27311 10.1052Z" fill="#FF6270"/>
<path d="M4.74471 21.0701L1.71429 18.0928L4.77531 17.4672L5.41251 14.4595L8.42297 13.8837L8.85154 11.6556L7.27311 10.1052L6.70869 13.0416L3.69823 13.6174L3.06103 16.6251L0 17.2507L3.03043 20.228C3.6489 20.8265 4.4151 21.2567 5.25386 21.4766C5.07516 21.3523 4.90508 21.2165 4.74471 21.0701Z" fill="#FF848E"/>
</svg>
