<svg width="48" height="48" viewBox="0 0 48 48" fill="none" xmlns="http://www.w3.org/2000/svg">
<path d="M40.0369 27.5775C42.6913 26.1728 45.3457 28.1031 48 25.4487C43.9682 25.4487 43.6761 21.7091 40.1852 21.1681C42.0999 18.8544 45.291 19.6221 46.7275 16.154C43.0027 17.6968 41.3016 14.3537 37.8695 15.1899C38.7531 12.3197 41.9949 11.8077 41.9949 8.05387C39.144 10.9048 36.2931 8.46703 33.4422 10.553C33.1602 7.56309 35.9594 5.84944 34.5229 2.38125C32.98 6.10612 29.4132 4.94503 27.5776 7.96313C26.1728 5.30878 28.1031 2.65444 25.4487 0C25.4487 4.03181 21.7091 4.32394 21.1682 7.81481C18.8545 5.90006 19.6222 2.709 16.1541 1.27247C17.6969 4.99734 14.3538 6.69844 15.19 10.1305C12.3198 9.24694 11.8078 6.00506 8.05397 6.00506C10.9049 8.856 8.46722 11.7069 10.5531 14.5579C7.56319 14.8399 5.84953 12.0407 2.38134 13.4772C6.10622 15.0201 4.94513 18.5869 7.96322 20.4225C5.30878 21.8272 2.65434 19.8969 0 22.5513C4.03181 22.5513 4.32394 26.2909 7.81481 26.8319C5.90006 29.1456 2.709 28.3779 1.27247 31.846C4.99734 30.3032 6.69844 33.6463 10.1305 32.8101C9.24694 35.6803 6.00506 36.1923 6.00506 39.9461C8.856 37.0952 11.7069 39.5329 14.5578 37.447C14.8398 40.4369 12.0406 42.1506 13.4771 45.6188C15.02 41.8939 18.5868 43.055 20.4224 40.0369C21.8272 42.6913 19.8968 45.3457 22.5512 48C22.5512 43.9682 26.2908 43.6761 26.8317 40.1852C29.1454 42.0999 28.3778 45.291 31.8458 46.7274C30.303 43.0026 33.6461 41.3015 32.8099 37.8694C35.6801 38.753 36.1921 41.9948 39.9459 41.9948C37.095 39.1439 39.5327 36.293 37.4468 33.442C40.4367 33.16 42.1504 35.9592 45.6186 34.5227C41.8939 32.9798 43.055 29.4132 40.0369 27.5775Z" fill="#FF812D"/>
<path d="M24 10.479V37.5213C31.4676 37.5213 37.5211 31.4677 37.5211 24.0002C37.5211 16.5327 31.4676 10.479 24 10.479Z" fill="#FFB833"/>
<path d="M34.6234 24.0001C34.6234 16.5325 29.867 10.479 23.9996 10.479C16.532 10.479 10.4785 16.5326 10.4785 24.0001C10.4785 31.4676 16.532 37.5212 23.9996 37.5212C29.867 37.5212 34.6234 31.4677 34.6234 24.0001Z" fill="#FFCE53"/>
<path d="M24 13.3762V34.6237C29.8673 34.6237 34.6237 29.8673 34.6237 24C34.6237 18.1326 29.8673 13.3762 24 13.3762Z" fill="#FFE373"/>
<path d="M31.7261 24C31.7261 18.1326 28.267 13.3762 23.9997 13.3762C18.1324 13.3762 13.376 18.1326 13.376 24C13.376 29.8673 18.1325 34.6237 23.9998 34.6237C28.267 34.6237 31.7261 29.8673 31.7261 24Z" fill="#FFE9B0"/>
</svg>
