<svg width="56" height="56" viewBox="0 0 56 56" fill="none" xmlns="http://www.w3.org/2000/svg">
<path d="M0 26.24C0 16.6746 0 11.8919 1.97909 8.29194C3.44179 5.63131 5.63131 3.44179 8.29194 1.97909C11.8919 0 16.6746 0 26.24 0H29.76C39.3254 0 44.1081 0 47.7081 1.97909C50.3687 3.44179 52.5582 5.63131 54.0209 8.29194C56 11.8919 56 16.6746 56 26.24V29.76C56 39.3254 56 44.1081 54.0209 47.7081C52.5582 50.3687 50.3687 52.5582 47.7081 54.0209C44.1081 56 39.3254 56 29.76 56H26.24C16.6746 56 11.8919 56 8.29194 54.0209C5.63131 52.5582 3.44179 50.3687 1.97909 47.7081C0 44.1081 0 39.3254 0 29.76V26.24Z" fill="white"/>
<path d="M17.1912 37.4656L15.6539 39.0029C15.2977 39.3591 15.2977 39.959 15.6539 40.334C16.0289 40.6902 16.6287 40.6902 16.9849 40.334L18.5223 38.7966L18.0162 37.9717L17.1912 37.4656Z" fill="#10C358"/>
<path d="M39.6504 30.9282C38.9182 30.1963 37.7312 30.1963 36.999 30.9282L36.5181 31.4092L34.7751 28.1284L29.9473 32.5801L37.7896 41.9517C37.8076 41.9736 37.8264 41.9939 37.8457 42.0132C38.0393 42.2068 38.3093 42.3071 38.5845 42.2844C38.8872 42.2598 39.1592 42.0903 39.3145 41.8286C40.22 40.303 40.2603 38.4517 39.4219 36.8755L38.3577 34.8723L39.6504 33.5798C40.3826 32.8477 40.3826 31.6606 39.6504 30.9282V30.9282Z" fill="#10C358"/>
<path d="M25.0671 16.3457C24.3352 15.6133 23.1479 15.6133 22.4158 16.3457L21.1233 17.6382L19.1201 16.574C17.5439 15.7356 15.6926 15.7756 14.167 16.6814C13.9055 16.8367 13.7358 17.1086 13.7112 17.4116C13.6885 17.6865 13.7888 17.9565 13.9824 18.1501C14.0019 18.1694 14.022 18.1882 14.0439 18.2065L23.4163 26.0486L27.8662 21.2207L24.5862 19.478L25.0674 18.9971C25.7996 18.2649 25.7996 17.0776 25.0671 16.3457Z" fill="#10C358"/>
<path d="M42.9284 13.0686C42.1972 12.3374 41.3161 12 40.4162 12C39.4602 12 38.5039 12.4124 37.8291 13.1812L19.048 33.5283L15.2609 31.8411C14.5485 31.5225 13.7048 31.6724 13.1611 32.2161L12.28 33.116C11.8488 33.5471 11.9238 34.2598 12.4487 34.5784L17.1921 37.4656L18.3168 36.3406C18.673 35.9844 19.2731 35.9844 19.6481 36.3406C20.009 36.7017 19.9897 37.3643 19.6481 37.6719L18.5231 38.7966L21.4104 43.54C21.5603 43.7651 21.8042 43.9524 22.1042 43.99C22.3852 44.0276 22.6665 43.915 22.8728 43.7087L23.7727 42.8276C24.3164 42.2839 24.4665 41.4402 24.1477 40.7278L22.4604 36.9407L42.8159 18.1682C44.2785 16.8745 44.4658 14.606 42.9284 13.0686V13.0686Z" fill="#10C358"/>
</svg>
