<svg width="24" height="24" viewBox="0 0 24 24" fill="none" xmlns="http://www.w3.org/2000/svg">
<g clip-path="url(#clip0_3731_15105)">
<path d="M20.7659 22.5887L11.155 17.5907C10.9045 17.4602 10.5991 17.4782 10.3624 17.6357L3.01326 22.6337C2.73836 22.8212 2.61924 23.1617 2.72003 23.4752C2.81778 23.7857 3.11406 24.0002 3.447 24.0002H20.407C20.7568 24.0002 21.0637 23.7662 21.1477 23.4302C21.2333 23.0957 21.0744 22.7492 20.7659 22.5887Z" fill="#363636"/>
<path d="M23.9822 21.1633L21.7218 11.1688C21.6669 10.9243 21.4912 10.7248 21.2545 10.6333C21.0163 10.5418 20.749 10.5733 20.5413 10.7143L13.1907 15.7123C12.9707 15.8623 12.847 16.1128 12.8638 16.3723C12.8791 16.6348 13.0333 16.8688 13.2685 16.9903L22.878 21.9883C22.991 22.0468 23.1132 22.0768 23.2353 22.0768C23.3988 22.0768 23.5622 22.0258 23.6981 21.9223C23.9348 21.7453 24.0463 21.4498 23.9822 21.1633Z" fill="#363636"/>
<path d="M18.664 9.5265C18.5632 9.213 18.2685 9 17.934 9H10.9637C9.69604 11.2545 7.82059 13.41 7.04933 14.253C6.6156 14.727 5.99401 15 5.34493 15C4.69585 15 4.07426 14.727 3.64053 14.253C3.34271 13.9275 2.88149 13.407 2.35306 12.762L0.505097 20.931C0.437898 21.2325 0.56466 21.543 0.824291 21.7155C0.952579 21.801 1.10225 21.843 1.25039 21.843C1.40312 21.843 1.55431 21.7995 1.68566 21.7095L18.3677 10.365C18.6442 10.1805 18.7618 9.84 18.664 9.5265Z" fill="#363636"/>
<path d="M5.34535 0C2.39777 0 0 2.355 0 5.25C0 7.944 4.2885 12.7155 4.77722 13.251C4.9223 13.4085 5.12848 13.5 5.34535 13.5C5.56222 13.5 5.7684 13.4085 5.91348 13.251C6.4022 12.7155 10.6907 7.944 10.6907 5.25C10.6907 2.355 8.29293 0 5.34535 0ZM5.34535 7.5C4.08079 7.5 3.05449 6.492 3.05449 5.25C3.05449 4.008 4.08079 3 5.34535 3C6.60991 3 7.63621 4.008 7.63621 5.25C7.63621 6.492 6.60991 7.5 5.34535 7.5Z" fill="#363636"/>
</g>
<defs>
<clipPath id="clip0_3731_15105">
<rect width="24" height="24" fill="white"/>
</clipPath>
</defs>
</svg>
