<svg width="40" height="40" viewBox="0 0 40 40" fill="none" xmlns="http://www.w3.org/2000/svg">
<rect width="40" height="40" rx="20" fill="white"/>
<g clip-path="url(#clip0_3731_14915)">
<path d="M20.0498 10C14.2786 10 10 12.3 10 15V15.7C10 16.4 10.597 16.9 11.2935 17H13.8806C14.7761 17 15.2736 15.9 14.9751 15C14.4776 14.3 14.9751 13.3 15.7711 13.1C18.5572 12.5 21.3433 12.5 24.2289 13.1C25.1244 13.3 25.5224 14.2 25.0249 15C24.7264 15.9 25.2239 16.9 26.1194 17H28.7065C29.403 17 30 16.4 30 15.7V15C29.9005 12.2 25.5224 10 20.0498 10Z" fill="#096AFC"/>
<path d="M25.224 17.5C25.025 17.2 24.7265 17 24.3285 17H22.9354V15.5C22.9354 15.2 22.7364 15 22.4379 15H21.4429C21.1444 15 20.9454 15.2 20.9454 15.5V17H18.9553V15.5C18.9553 15.2 18.7563 15 18.4578 15H17.4628C17.1643 15 16.9653 15.2 16.9653 15.5V17H15.5722C15.1742 17 14.8757 17.2 14.6767 17.5C13.1842 20.1 10.9951 23.4 10.9951 29C10.9951 29.5 11.3931 30 11.9901 30H27.9105C28.5076 30 28.9056 29.5 28.9056 29C28.9056 23.4 26.617 19.9 25.224 17.5ZM19.9503 28C17.7613 28 15.9702 26.2 15.9702 24C15.9702 21.8 17.7613 20 19.9503 20C22.1394 20 23.9304 21.8 23.9304 24C23.9304 26.2 22.1394 28 19.9503 28Z" fill="#096AFC"/>
<path d="M19.95 26C21.0491 26 21.9401 25.1046 21.9401 24C21.9401 22.8954 21.0491 22 19.95 22C18.8509 22 17.96 22.8954 17.96 24C17.96 25.1046 18.8509 26 19.95 26Z" fill="#096AFC"/>
</g>
<defs>
<clipPath id="clip0_3731_14915">
<rect width="20" height="20" fill="white" transform="translate(10 10)"/>
</clipPath>
</defs>
</svg>
